# xmcd
#
# Track frame offsets:
#	225
#	13528
#	21776
#	33910
#	45487
#	58142
#	65589
#	76722
#	87961
#	101663
#	121340
#	130687
#	145515
#	156806
#
# Disc length: 2253 seconds
#
# Revision: 1
# Processed by: cddbd v1.4b41PL2 Copyright (c) Steve Scherf et al.
# Submitted via: audiograbber 1.80
#
DISCID=a808ca0e
DTITLE=Myszkowski Krzysztof - Krzysztof Myszkowski
DYEAR=1900
DGENRE=
TTITLE0=Wiersz ksiezycowy
TTITLE1=Musisz mi pomoc
TTITLE2=Krzywda
TTITLE3=Twoj portret wiosenny
TTITLE4=Jezyk masz trudny
TTITLE5=Sniez sie w duszy mojej sniez
TTITLE6=Ludzie
TTITLE7=Kwiaciarka z Plant
TTITLE8=Cos wisi w powietrzu
TTITLE9=Dwa kroki do jesieni
TTITLE10=Rozmowa z moim psem
TTITLE11=Zytniowka
TTITLE12=Ludziom nie zawsze mozna wierzyc
TTITLE13=Zbieg okolicznosci lagodzacych
EXTD=
EXTT0=
EXTT1=
EXTT2=
EXTT3=
EXTT4=
EXTT5=
EXTT6=
EXTT7=
EXTT8=
EXTT9=
EXTT10=
EXTT11=
EXTT12=
EXTT13=
PLAYORDER=
